<svg height="420pt" viewBox="0 -17 420.48854 420" width="420pt" xmlns="http://www.w3.org/2000/svg"><path d="m314.027344 170.894531c0 86.714844-70.296875 157.011719-157.015625 157.011719-86.714844 0-157.011719-70.296875-157.011719-157.011719 0-86.714843 70.296875-157.015625 157.011719-157.015625 86.71875 0 157.015625 70.300782 157.015625 157.015625zm0 0" fill="#efefd2"/><g fill="#4c241d"><path d="m319.628906 120.980469c-1.746094 0-3.496094-.667969-4.828125-2-2.664062-2.664063-2.664062-6.992188 0-9.652344l43.453125-43.433594c2.667969-2.664062 6.988282-2.664062 9.652344 0 2.667969 2.664063 2.667969 6.992188 0 9.652344l-43.453125 43.433594c-1.332031 1.335937-3.078125 2-4.824219 2zm0 0"/><path d="m372.734375 87.203125c-1.746094 0-3.492187-.667969-4.828125-2l-19.300781-19.3125c-2.664063-2.664063-2.664063-6.988281 0-9.65625 2.667969-2.660156 6.988281-2.664063 9.65625.003906l19.300781 19.3125c2.664062 2.664063 2.664062 6.992188 0 9.65625-1.335938 1.332031-3.082031 1.996094-4.828125 1.996094zm0 0"/><path d="m158.269531 120.9375c-1.746093 0-3.496093-.667969-4.828125-2l-43.433594-43.457031c-2.664062-2.664063-2.664062-6.988281.003907-9.65625 2.664062-2.660157 6.992187-2.664063 9.65625.003906l43.433593 43.457031c2.664063 2.664063 2.664063 6.992188-.003906 9.65625-1.332031 1.328125-3.082031 1.996094-4.828125 1.996094zm0 0"/><path d="m245.789062 75.34375c-3.773437 0-6.828124-3.054688-6.828124-6.828125l.011718-47.789063c0-3.765624 3.0625-6.820312 6.828125-6.820312 3.773438 0 6.828125 3.054688 6.828125 6.828125l-.015625 47.785156c0 3.769531-3.058593 6.824219-6.824219 6.824219zm0 0"/></g><path d="m269.695312 27.566406-47.789062-.015625c-5.65625 0-10.238281-4.585937-10.234375-10.242187 0-5.65625 4.585937-10.238282 10.242187-10.238282l47.785157.015626c5.65625 0 10.238281 4.585937 10.238281 10.242187-.003906 5.65625-4.589844 10.238281-10.242188 10.238281zm0 0" fill="#fc8c29"/><path d="m269.699219 34.390625c-.003907 0-.003907 0-.011719 0l-47.78125-.011719c-9.414062 0-17.066406-7.65625-17.066406-17.070312.015625-9.414063 7.675781-17.0625 17.074218-17.0625l47.785157.011718c4.5625.003907 8.847656 1.78125 12.066406 5.003907 3.230469 3.226562 5.003906 7.511719 4.996094 12.074219 0 4.550781-1.773438 8.839843-5 12.0625-3.21875 3.21875-7.507813 4.992187-12.0625 4.992187zm-47.785157-20.492187c-1.886718 0-3.417968 1.53125-3.417968 3.414062 0 1.878906 1.53125 3.410156 3.410156 3.410156l47.789062.015625h.003907c1.230469 0 2.035156-.625 2.410156-.996093.371094-.375 1-1.183594 1-2.414063 0-1.234375-.621094-2.042969-.996094-2.417969-.371093-.371094-1.183593-1-2.417969-1zm0 0" fill="#4c241d"/><path d="m105.183594 87.128906c-1.746094 0-3.5-.664062-4.832032-2-2.664062-2.664062-2.664062-6.988281.003907-9.65625l19.316406-19.300781c2.664063-2.660156 6.988281-2.664063 9.65625.003906 2.664063 2.664063 2.664063 6.988281-.003906 9.65625l-19.316407 19.300781c-1.335937 1.332032-3.078124 1.996094-4.824218 1.996094zm0 0" fill="#4c241d"/><path d="m402.761719 211.878906c0 86.714844-70.296875 157.011719-157.011719 157.011719s-157.011719-70.296875-157.011719-157.011719c0-86.71875 70.296875-157.015625 157.011719-157.015625s157.011719 70.296875 157.011719 157.015625zm0 0" fill="#fc8c29"/><path d="m245.753906 375.71875c-.019531 0-.03125 0-.046875 0-90.34375-.023438-163.820312-73.542969-163.800781-163.886719.027344-90.324219 73.527344-163.792969 163.847656-163.792969h.039063c43.769531.011719 84.902343 17.066407 115.839843 48.019532 30.933594 30.953125 47.96875 72.101562 47.957032 115.867187-.015625 43.761719-17.0625 84.898438-48.023438 115.835938-30.9375 30.925781-72.070312 47.957031-115.8125 47.957031zm0-314.027344c-82.800781 0-150.164062 67.34375-150.191406 150.148438-.011719 40.113281 15.597656 77.832031 43.960938 106.207031 28.359374 28.375 66.070312 44.007813 106.183593 44.015625h.046875c40.101563 0 77.800782-15.605469 106.167969-43.957031 28.371094-28.359375 44.007813-66.070313 44.011719-106.183594 0-.003906 0-.003906 0-.003906.015625-40.113281-15.597656-77.832031-43.960938-106.210938-28.351562-28.371093-66.066406-44.003906-106.179687-44.015625-.011719 0-.03125 0-.039063 0zm0 0" fill="#4c241d"/><path d="m156.691406 283.972656c-15.117187-20.078125-24.078125-45.054687-24.070312-72.125.019531-66.25 53.738281-119.941406 119.988281-119.921875l-.03125 119.957031z" fill="#ffec95"/><path d="m189.003906 264.355469c-1.867187 0-3.726562-.761719-5.078125-2.257813-2.523437-2.800781-2.296875-7.117187.503907-9.640625l43.097656-38.828125c2.78125-2.515625 7.113281-2.308594 9.640625.503906 2.519531 2.800782 2.300781 7.117188-.507813 9.640626l-43.09375 38.828124c-1.296875 1.171876-2.933594 1.753907-4.5625 1.753907zm0 0" fill="#4c241d"/><path d="m142.089844 158.269531c-1.171875 0-2.355469-.296875-3.4375-.929687-3.253906-1.902344-4.355469-6.082032-2.457032-9.335938 3.917969-6.710937 8.488282-13.101562 13.585938-18.992187 2.46875-2.855469 6.777344-3.164063 9.628906-.699219 2.851563 2.46875 3.164063 6.777344.699219 9.632812-4.546875 5.257813-8.625 10.957032-12.121094 16.945313-1.269531 2.171875-3.554687 3.378906-5.898437 3.378906zm0 0" fill="#4c241d"/><path d="m245.84375 338.671875c-4.914062 0-9.875-.289063-14.867188-.875-33.632812-3.945313-63.722656-20.753906-84.710937-47.324219-20.996094-26.574218-30.382813-59.734375-26.433594-93.367187.4375-3.742188 3.828125-6.441407 7.574219-5.984375 3.746094.441406 6.425781 3.828125 5.984375 7.574218-3.519531 30.011719 4.859375 59.597657 23.585937 83.3125 18.730469 23.710938 45.578126 38.710938 75.585938 42.226563 62.003906 7.292969 118.277344-37.222656 125.542969-99.175781 3.519531-30.007813-4.851563-59.597656-23.585938-83.308594-18.730469-23.707031-45.574219-38.710938-75.585937-42.230469-25.238282-2.964843-50.027344 2.414063-71.703125 15.535157-3.234375 1.957031-7.429688.921874-9.378907-2.304688-1.953124-3.226562-.917968-7.421875 2.304688-9.375 24.304688-14.714844 52.105469-20.742188 80.363281-17.414062 33.640625 3.945312 63.722657 20.753906 84.714844 47.328124 20.992187 26.570313 30.378906 59.726563 26.433594 93.363282-7.5625 64.433594-62.464844 112.015625-125.824219 112.019531zm0 0" fill="#4c241d"/><path d="m259.402344 208.464844c0 9.425781-7.640625 17.066406-17.066406 17.066406-9.425782 0-17.066407-7.640625-17.066407-17.066406 0-9.425782 7.640625-17.066406 17.066407-17.066406 9.425781 0 17.066406 7.640624 17.066406 17.066406zm0 0" fill="#ffce56"/><path d="m242.339844 232.359375c-.003906 0-.003906 0-.003906 0-13.175782-.003906-23.894532-10.722656-23.894532-23.898437.007813-13.175782 10.726563-23.890626 23.894532-23.890626h.003906c6.386718.003907 12.390625 2.492188 16.894531 7.003907 4.515625 4.515625 6.992187 10.515625 6.992187 16.894531v.003906c0 6.382813-2.484374 12.378906-7 16.890625-4.503906 4.511719-10.503906 6.996094-16.886718 6.996094zm-.003906-34.136719c-5.640626 0-10.234376 4.59375-10.242188 10.242188 0 5.644531 4.59375 10.234375 10.242188 10.238281h.003906c2.734375 0 5.300781-1.0625 7.234375-2.996094 1.933593-1.933593 3-4.503906 3-7.238281v-.003906c0-2.734375-1.058594-5.304688-2.992188-7.238282-1.933593-1.933593-4.507812-3.003906-7.242187-3.003906-.003906 0-.003906 0-.003906 0zm0 0" fill="#4c241d"/><path d="m413.660156 321.136719c0 32.425781-26.289062 58.710937-58.714844 58.710937-32.425781 0-58.710937-26.285156-58.710937-58.710937s26.285156-58.714844 58.710937-58.714844c32.425782 0 58.714844 26.289063 58.714844 58.714844zm0 0" fill="#fff"/><path d="m354.949219 386.675781c-.015625 0-.015625 0-.023438 0-36.132812-.011719-65.527343-29.421875-65.519531-65.558593.007812-17.507813 6.828125-33.960938 19.207031-46.335938 12.378907-12.367188 28.828125-19.183594 46.328125-19.183594h.019532c36.140624.007813 65.53125 29.417969 65.527343 65.554688v.003906c-.011719 36.128906-29.421875 65.519531-65.539062 65.519531zm-.007813-117.425781c-13.855468 0-26.875 5.394531-36.671875 15.1875-9.808593 9.796875-15.207031 22.824219-15.207031 36.679688-.007812 28.609374 23.257812 51.890624 51.867188 51.902343h.019531c28.601562 0 51.875-23.265625 51.886719-51.875 0-13.855469-5.394532-26.890625-15.1875-36.6875-9.800782-9.804687-22.824219-15.203125-36.6875-15.207031-.007813 0-.011719 0-.019532 0zm58.71875 51.902344h.066406zm0 0" fill="#4c241d"/><path d="m354.980469 334.746094c-3.773438 0-6.824219-3.054688-6.824219-6.824219v-40.960937c0-3.769532 3.050781-6.828126 6.824219-6.828126 3.773437 0 6.828125 3.058594 6.828125 6.828126v40.960937c0 3.769531-3.054688 6.824219-6.828125 6.824219zm0 0" fill="#4c241d"/><path d="m361.808594 348.402344c0 3.769531-3.058594 6.824218-6.828125 6.824218s-6.824219-3.054687-6.824219-6.824218c0-3.773438 3.054688-6.828125 6.824219-6.828125s6.828125 3.054687 6.828125 6.828125zm0 0" fill="#4c241d"/></svg>